<mxfile host="app.diagrams.net" modified="2024-03-12T04:06:40.343Z" agent="Mozilla/5.0 (Windows NT 10.0; Win64; x64) AppleWebKit/537.36 (KHTML, like Gecko) Chrome/122.0.0.0 Safari/537.36" version="24.0.2" etag="Es-d8a1RPeThND9tVRcy" type="github">
  <diagram name="Page-1" id="28Y6JmOttL0Gv8KqU-Be">
    <mxGraphModel>
      <root>
        <mxCell id="0" />
        <mxCell id="1" parent="0" />
      </root>
    </mxGraphModel>
  </diagram>
</mxfile>
